<?xml version="1.0" encoding="UTF-8"?>
<svg width="240" height="600" version="1.1" xmlns="http://www.w3.org/2000/svg">
 <g stroke="#000" stroke-width="2">
  <path d="m113.5 123.71h107.62c4.3796 0 7.9054-3.5258 7.9054-7.9054v-24.086c0-4.3796-3.5258-7.9054-7.9054-7.9054h-107.62c-4.3796 0-7.9054 3.5258-7.9054 7.9054v24.086c0 4.3796 3.5258 7.9054 7.9054 7.9054z" fill="#77c3ff"/>
  <path d="m113.5 187.1h107.62c4.3796 0 7.9054-3.5258 7.9054-7.9054v-24.086c0-4.3796-3.5258-7.9054-7.9054-7.9054h-107.62c-4.3796 0-7.9054 3.5258-7.9054 7.9054v24.086c0 4.3796 3.5258 7.9054 7.9054 7.9054z" fill="#77fff9"/>
  <path d="m113.5 250.48h107.62c4.3796 0 7.9054-3.5258 7.9054-7.9054v-24.086c0-4.3796-3.5258-7.9054-7.9054-7.9054h-107.62c-4.3796 0-7.9054 3.5258-7.9054 7.9054v24.086c0 4.3796 3.5258 7.9054 7.9054 7.9054z" fill="#77ffb6"/>
  <path d="m113.5 313.87h107.62c4.3796 0 7.9054-3.5258 7.9054-7.9054v-24.086c0-4.3796-3.5258-7.9054-7.9054-7.9054h-107.62c-4.3796 0-7.9054 3.5258-7.9054 7.9054v24.086c0 4.3796 3.5258 7.9054 7.9054 7.9054z" fill="#7bff77"/>
  <path d="m113.5 377.26h107.62c4.3796 0 7.9054-3.5258 7.9054-7.9054v-24.086c0-4.3796-3.5258-7.9054-7.9054-7.9054h-107.62c-4.3796 0-7.9054 3.5258-7.9054 7.9054v24.086c0 4.3796 3.5258 7.9054 7.9054 7.9054z" fill="#beff77"/>
  <path d="m113.5 440.64h107.62c4.3796 0 7.9054-3.5258 7.9054-7.9054v-24.086c0-4.3796-3.5258-7.9054-7.9054-7.9054h-107.62c-4.3796 0-7.9054 3.5258-7.9054 7.9054v24.086c0 4.3796 3.5258 7.9054 7.9054 7.9054z" fill="#fffd77"/>
  <path d="m113.5 504.02h107.62c4.3796 0 7.9054-3.5258 7.9054-7.9054v-24.086c0-4.3796-3.5258-7.9054-7.9054-7.9054h-107.62c-4.3796 0-7.9054 3.5258-7.9054 7.9054v24.086c0 4.3796 3.5258 7.9054 7.9054 7.9054z" fill="#ffba77"/>
  <path d="m113.5 567.41h107.62c4.3796 0 7.9054-3.5258 7.9054-7.9054v-24.086c0-4.3796-3.5258-7.9054-7.9054-7.9054h-107.62c-4.3796 0-7.9054 3.5258-7.9054 7.9054v24.086c0 4.3796 3.5258 7.9054 7.9054 7.9054z" fill="#ebae85"/>
  <path d="m113.5 60.331h107.62c4.3796 0 7.9054-3.5258 7.9054-7.9054v-24.086c0-4.3796-3.5258-7.9054-7.9054-7.9054h-107.62c-4.3796 0-7.9054 3.5258-7.9054 7.9054v24.086c0 4.3796 3.5258 7.9054 7.9054 7.9054z" fill="#777fff"/>
  <path d="m62.274 10.996c0.2356 14.795 49.46 23.853 51.298 58.922h-102.59c-0.60396-34.332 51.21-45.124 51.298-58.922z" fill="#5863ff"/>
  <path d="m113.57 69.925c0-7.7031-25.381-7.9078-53.698-7.9078-28.316 0-48.898 0.20465-48.898 7.9078s22.981 13.955 51.298 13.955 51.298-6.2518 51.298-13.955z" fill="#959cff"/>
  <path d="m72.635 74.114c0 2.0501-4.7671 3.7119-10.648 3.7119-5.8806 0-10.648-1.6618-10.648-3.7119s4.7671-3.7119 10.648-3.7119c5.8806 0 10.648 1.6618 10.648 3.7119z" fill="#58b5ff"/>
  <path d="m102.46 71.997c0 2.0501-4.7671 3.7119-10.648 3.7119-5.8806 0-10.648-1.6618-10.648-3.7119s4.7671-3.7119 10.648-3.7119c5.8806 0 10.648 1.6618 10.648 3.7119z" fill="#d3d3d3"/>
  <path d="m45.172 72.037c0 2.0501-4.7671 3.7119-10.648 3.7119-5.8806 0-10.648-1.6618-10.648-3.7119s4.7671-3.7119 10.648-3.7119c5.8806 0 10.648 1.6618 10.648 3.7119z" fill="#a9a9a9"/>
  <path d="m66.097 74.697c0.23559 14.795 45.636 23.853 47.474 58.922h-102.59c-0.60396-34.332 47.386-45.124 47.474-58.922" fill="#58b5ff"/>
  <path d="m113.57 133.63c0-7.7031-25.381-7.9078-53.698-7.9078-28.316 0-48.898 0.20465-48.898 7.9078 0 7.7031 22.981 13.955 51.298 13.955s51.298-6.2518 51.298-13.955z" fill="#95d0ff"/>
  <path d="m70.681 137.55c0 1.562-3.7682 2.8282-8.4165 2.8282s-8.4165-1.2662-8.4165-2.8282 3.7682-2.8282 8.4165-2.8282 8.4165 1.2662 8.4165 2.8282z" fill="#58fff7"/>
  <path d="m96.09 136.55c0 1.562-3.7682 2.8282-8.4165 2.8282s-8.4165-1.2662-8.4165-2.8282 3.7682-2.8282 8.4165-2.8282 8.4165 1.2662 8.4165 2.8282z" fill="#90ee90"/>
  <path d="m55.058 131.99c0 1.562-3.7682 2.8282-8.4165 2.8282s-8.4165-1.2662-8.4165-2.8282 3.7682-2.8282 8.4165-2.8282 8.4165 1.2662 8.4165 2.8282z" fill="#add8e6"/>
  <path d="m34.573 135.14c0 1.562-3.7682 2.8282-8.4165 2.8282s-8.4165-1.2662-8.4165-2.8282 3.7682-2.8282 8.4165-2.8282 8.4165 1.2662 8.4165 2.8282z" fill="#f0e68c"/>
  <path d="m66.097 137.45c0.23559 14.795 45.636 23.853 47.474 58.922h-102.59c-0.60396-34.332 47.386-45.124 47.474-58.922" fill="#58fff7"/>
  <path d="m113.57 196.37c0-7.7031-25.381-7.9078-53.698-7.9078-28.316 0-48.898 0.20464-48.898 7.9078 0 7.7031 22.981 13.955 51.298 13.955s51.298-6.2518 51.298-13.955z" fill="#95fffa"/>
  <g fill="#58ffa5">
   <path d="m70.681 200.3c0 1.562-3.7682 2.8282-8.4165 2.8282s-8.4165-1.2662-8.4165-2.8282 3.7682-2.8282 8.4165-2.8282 8.4165 1.2662 8.4165 2.8282z"/>
   <path d="m93.652 202.95c0 1.562-3.7682 2.8282-8.4165 2.8282s-8.4165-1.2662-8.4165-2.8282 3.7682-2.8282 8.4165-2.8282 8.4165 1.2662 8.4165 2.8282z"/>
   <path d="m35.462 196.44c0 1.562-3.7682 2.8282-8.4165 2.8282s-8.4165-1.2662-8.4165-2.8282 3.7682-2.8282 8.4165-2.8282 8.4165 1.2662 8.4165 2.8282z"/>
   <path d="m105.83 195.24c0 1.562-3.7682 2.8282-8.4165 2.8282s-8.4165-1.2662-8.4165-2.8282 3.7682-2.8282 8.4165-2.8282 8.4165 1.2662 8.4165 2.8282z"/>
   <path d="m58.013 194.05c0 1.562-3.7682 2.8282-8.4165 2.8282s-8.4165-1.2662-8.4165-2.8282 3.7682-2.8282 8.4165-2.8282 8.4165 1.2662 8.4165 2.8282z"/>
   <path d="m85.196 194.2c0 1.562-3.7682 2.8282-8.4165 2.8282s-8.4165-1.2662-8.4165-2.8282 3.7682-2.8282 8.4165-2.8282 8.4165 1.2662 8.4165 2.8282z"/>
   <path d="m49.807 203.95c0 1.562-3.7682 2.8282-8.4165 2.8282s-8.4165-1.2662-8.4165-2.8282 3.7682-2.8282 8.4165-2.8282 8.4165 1.2662 8.4165 2.8282z"/>
   <path d="m66.097 200.53c0.23559 14.795 45.636 23.853 47.474 58.922h-102.59c-0.60396-34.332 47.386-45.124 47.474-58.922"/>
  </g>
  <path d="m113.57 259.45c0-7.7031-25.381-7.9078-53.698-7.9078-28.316 0-48.898 0.20465-48.898 7.9078 0 7.7031 22.981 13.955 51.298 13.955s51.298-6.2518 51.298-13.955z" fill="#95ffc6"/>
  <g fill="#5dff58">
   <path d="m70.681 263.38c0 1.562-3.7682 2.8282-8.4165 2.8282s-8.4165-1.2662-8.4165-2.8282 3.7682-2.8282 8.4165-2.8282 8.4165 1.2662 8.4165 2.8282z"/>
   <path d="m93.652 266.03c0 1.562-3.7682 2.8282-8.4165 2.8282s-8.4165-1.2662-8.4165-2.8282 3.7682-2.8282 8.4165-2.8282 8.4165 1.2662 8.4165 2.8282z"/>
   <path d="m35.462 259.52c0 1.562-3.7682 2.8282-8.4165 2.8282s-8.4165-1.2662-8.4165-2.8282 3.7682-2.8282 8.4165-2.8282 8.4165 1.2662 8.4165 2.8282z"/>
   <path d="m105.83 258.32c0 1.562-3.7682 2.8282-8.4165 2.8282s-8.4165-1.2662-8.4165-2.8282 3.7682-2.8282 8.4165-2.8282 8.4165 1.2662 8.4165 2.8282z"/>
   <path d="m58.013 257.13c0 1.562-3.7682 2.8282-8.4165 2.8282s-8.4165-1.2662-8.4165-2.8282 3.7682-2.8282 8.4165-2.8282 8.4165 1.2662 8.4165 2.8282z"/>
   <path d="m85.196 257.28c0 1.562-3.7682 2.8282-8.4165 2.8282s-8.4165-1.2662-8.4165-2.8282 3.7682-2.8282 8.4165-2.8282 8.4165 1.2662 8.4165 2.8282z"/>
   <path d="m49.807 267.03c0 1.562-3.7682 2.8282-8.4165 2.8282s-8.4165-1.2662-8.4165-2.8282 3.7682-2.8282 8.4165-2.8282 8.4165 1.2662 8.4165 2.8282z"/>
   <path d="m66.097 263.77c0.23559 14.795 45.636 23.853 47.474 58.922h-102.59c-0.60396-34.332 47.386-45.124 47.474-58.922"/>
  </g>
  <path d="m113.57 322.69c0-7.7031-25.381-7.9078-53.698-7.9078-28.316 0-48.898 0.20464-48.898 7.9078 0 7.7031 22.981 13.955 51.298 13.955s51.298-6.2518 51.298-13.955z" fill="#99ff95"/>
  <g fill="#b0ff58">
   <path d="m70.681 326.62c0 1.562-3.7682 2.8282-8.4165 2.8282s-8.4165-1.2662-8.4165-2.8282 3.7682-2.8282 8.4165-2.8282 8.4165 1.2662 8.4165 2.8282z"/>
   <path d="m93.652 329.27c0 1.562-3.7682 2.8282-8.4165 2.8282s-8.4165-1.2662-8.4165-2.8282 3.7682-2.8282 8.4165-2.8282 8.4165 1.2662 8.4165 2.8282z"/>
   <path d="m35.462 322.76c0 1.562-3.7682 2.8282-8.4165 2.8282s-8.4165-1.2662-8.4165-2.8282 3.7682-2.8282 8.4165-2.8282 8.4165 1.2662 8.4165 2.8282z"/>
   <path d="m105.83 321.56c0 1.562-3.7682 2.8282-8.4165 2.8282s-8.4165-1.2662-8.4165-2.8282 3.7682-2.8282 8.4165-2.8282 8.4165 1.2662 8.4165 2.8282z"/>
   <path d="m58.013 320.37c0 1.562-3.7682 2.8282-8.4165 2.8282s-8.4165-1.2662-8.4165-2.8282 3.7682-2.8282 8.4165-2.8282 8.4165 1.2662 8.4165 2.8282z"/>
   <path d="m85.196 320.52c0 1.562-3.7682 2.8282-8.4165 2.8282s-8.4165-1.2662-8.4165-2.8282 3.7682-2.8282 8.4165-2.8282 8.4165 1.2662 8.4165 2.8282z"/>
   <path d="m49.807 330.27c0 1.562-3.7682 2.8282-8.4165 2.8282s-8.4165-1.2662-8.4165-2.8282 3.7682-2.8282 8.4165-2.8282 8.4165 1.2662 8.4165 2.8282z"/>
   <path d="m66.097 327.01c0.23559 14.795 45.636 23.853 47.474 58.922h-102.59c-0.60396-34.332 47.386-45.124 47.474-58.922"/>
  </g>
  <path d="m113.57 385.93c0-7.7031-25.381-7.9078-53.698-7.9078-28.316 0-48.898 0.20465-48.898 7.9078s22.981 13.955 51.298 13.955 51.298-6.2518 51.298-13.955z" fill="#cdff95"/>
  <g fill="#fffd58">
   <path d="m70.681 389.86c0 1.562-3.7682 2.8282-8.4165 2.8282s-8.4165-1.2662-8.4165-2.8282 3.7682-2.8282 8.4165-2.8282 8.4165 1.2662 8.4165 2.8282z"/>
   <path d="m93.652 392.51c0 1.562-3.7682 2.8282-8.4165 2.8282s-8.4165-1.2662-8.4165-2.8282 3.7682-2.8282 8.4165-2.8282 8.4165 1.2662 8.4165 2.8282z"/>
   <path d="m35.462 386c0 1.562-3.7682 2.8282-8.4165 2.8282s-8.4165-1.2662-8.4165-2.8282 3.7682-2.8282 8.4165-2.8282 8.4165 1.2662 8.4165 2.8282z"/>
   <path d="m105.83 384.8c0 1.562-3.7682 2.8282-8.4165 2.8282s-8.4165-1.2662-8.4165-2.8282 3.7682-2.8282 8.4165-2.8282 8.4165 1.2662 8.4165 2.8282z"/>
   <path d="m58.013 383.62c0 1.562-3.7682 2.8282-8.4165 2.8282s-8.4165-1.2662-8.4165-2.8282 3.7682-2.8282 8.4165-2.8282 8.4165 1.2662 8.4165 2.8282z"/>
   <path d="m85.196 383.77c0 1.562-3.7682 2.8282-8.4165 2.8282s-8.4165-1.2662-8.4165-2.8282 3.7682-2.8282 8.4165-2.8282 8.4165 1.2662 8.4165 2.8282z"/>
   <path d="m49.807 393.51c0 1.562-3.7682 2.8282-8.4165 2.8282s-8.4165-1.2662-8.4165-2.8282 3.7682-2.8282 8.4165-2.8282 8.4165 1.2662 8.4165 2.8282z"/>
   <path d="m66.097 390.25c0.23559 14.795 45.636 23.853 47.474 58.922h-102.59c-0.60396-34.332 47.386-45.124 47.474-58.922"/>
  </g>
  <path d="m113.57 449.17c0-7.7031-25.381-7.9078-53.698-7.9078-28.316 0-48.898 0.20465-48.898 7.9078s22.981 13.955 51.298 13.955 51.298-6.2518 51.298-13.955z" fill="#fffe95"/>
  <g fill="#ffaa58">
   <path d="m70.681 453.11c0 1.562-3.7682 2.8282-8.4165 2.8282s-8.4165-1.2662-8.4165-2.8282 3.7682-2.8282 8.4165-2.8282 8.4165 1.2662 8.4165 2.8282z"/>
   <path d="m93.652 455.75c0 1.562-3.7682 2.8282-8.4165 2.8282s-8.4165-1.2662-8.4165-2.8282 3.7682-2.8282 8.4165-2.8282 8.4165 1.2662 8.4165 2.8282z"/>
   <path d="m35.462 449.24c0 1.562-3.7682 2.8282-8.4165 2.8282s-8.4165-1.2662-8.4165-2.8282 3.7682-2.8282 8.4165-2.8282 8.4165 1.2662 8.4165 2.8282z"/>
   <path d="m105.83 448.04c0 1.562-3.7682 2.8282-8.4165 2.8282s-8.4165-1.2662-8.4165-2.8282 3.7682-2.8282 8.4165-2.8282 8.4165 1.2662 8.4165 2.8282z"/>
   <path d="m58.013 446.86c0 1.562-3.7682 2.8282-8.4165 2.8282s-8.4165-1.2662-8.4165-2.8282 3.7682-2.8282 8.4165-2.8282 8.4165 1.2662 8.4165 2.8282z"/>
   <path d="m85.196 447.01c0 1.562-3.7682 2.8282-8.4165 2.8282s-8.4165-1.2662-8.4165-2.8282 3.7682-2.8282 8.4165-2.8282 8.4165 1.2662 8.4165 2.8282z"/>
   <path d="m49.807 456.75c0 1.562-3.7682 2.8282-8.4165 2.8282s-8.4165-1.2662-8.4165-2.8282 3.7682-2.8282 8.4165-2.8282 8.4165 1.2662 8.4165 2.8282z"/>
   <path d="m66.097 453.5c0.23559 14.795 45.636 23.853 47.474 58.922h-102.59c-0.60396-34.332 47.386-45.124 47.474-58.922"/>
  </g>
  <path d="m113.57 512.41c0-7.7031-25.381-7.9078-53.698-7.9078-28.316 0-48.898 0.20465-48.898 7.9078 0 7.7031 22.981 13.955 51.298 13.955s51.298-6.2518 51.298-13.955z" fill="#ffca95"/>
  <g fill="#e28d54">
   <path d="m70.681 516.35c0 1.562-3.7682 2.8282-8.4165 2.8282s-8.4165-1.2662-8.4165-2.8282 3.7682-2.8282 8.4165-2.8282 8.4165 1.2662 8.4165 2.8282z"/>
   <path d="m93.652 518.99c0 1.562-3.7682 2.8282-8.4165 2.8282s-8.4165-1.2662-8.4165-2.8282 3.7682-2.8282 8.4165-2.8282 8.4165 1.2662 8.4165 2.8282z"/>
   <path d="m35.462 512.48c0 1.562-3.7682 2.8282-8.4165 2.8282s-8.4165-1.2662-8.4165-2.8282 3.7682-2.8282 8.4165-2.8282 8.4165 1.2662 8.4165 2.8282z"/>
   <path d="m105.83 511.29c0 1.562-3.7682 2.8282-8.4165 2.8282s-8.4165-1.2662-8.4165-2.8282 3.7682-2.8282 8.4165-2.8282 8.4165 1.2662 8.4165 2.8282z"/>
   <path d="m58.013 510.1c0 1.562-3.7682 2.8282-8.4165 2.8282s-8.4165-1.2662-8.4165-2.8282 3.7682-2.8282 8.4165-2.8282 8.4165 1.2662 8.4165 2.8282z"/>
   <path d="m85.196 510.25c0 1.562-3.7682 2.8282-8.4165 2.8282s-8.4165-1.2662-8.4165-2.8282 3.7682-2.8282 8.4165-2.8282 8.4165 1.2662 8.4165 2.8282z"/>
   <path d="m49.807 519.99c0 1.562-3.7682 2.8282-8.4165 2.8282s-8.4165-1.2662-8.4165-2.8282 3.7682-2.8282 8.4165-2.8282 8.4165 1.2662 8.4165 2.8282z"/>
   <path d="m66.097 516.13c0.23559 14.795 45.636 23.853 47.474 58.922h-102.59c-0.60396-34.332 47.386-45.124 47.474-58.922"/>
  </g>
  <path d="m113.57 575.05c0-7.7031-25.381-7.9078-53.698-7.9078-28.316 0-48.898 0.20464-48.898 7.9078 0 7.7031 22.981 13.955 51.298 13.955s51.298-6.2518 51.298-13.955z" fill="#ebae85"/>
 </g>
</svg>
