<svg xmlns="http://www.w3.org/2000/svg" title="reset" viewBox="0 0 32 32" aria-hidden="true">
    <path d="M 28,4 H 20 C 20,2.9 19.1,2 18,2 H 14 c -1.1,0 -2,0.9 -2,2 H 4 c -1.1,0 -2,0.9 -2,2 v 2 c 0,1.1 0.9,2 2,2 h 2 v 17 c 0,1.66 1.34,3 3,3 h 14 c 1.66,0 3,-1.34 3,-3 V 10 h 2 c 1.1,0 2,-0.9 2,-2 v -2 c 0,-1.1 -0.9,-2 -2,-2 z M 24,27 c 0,0.56 -0.44,1 -1,1 H 20 V 20 H 18 V 28 H 14 V 20 H 12 V 28 H 9 c -0.56,0 -1,-0.44 -1,-1 V 10 h 16 z M 28,8 H 26 6 4 v -2 h 8 2 v -2 h 4 v 2 h 2 8 z"></path>
</svg>
